<svg width="11" height="17" viewBox="0 0 11 17" fill="none" xmlns="http://www.w3.org/2000/svg">
<path d="M5.5 8.5L9.02802 5.36398C9.64627 4.81443 10 4.02672 10 3.19953V2.70711C10 2.25435 9.82014 1.82014 9.5 1.5V1.5C9.17986 1.17986 8.74565 1 8.29289 1H2.70711C2.25435 1 1.82014 1.17986 1.5 1.5V1.5C1.17986 1.82014 1 2.25435 1 2.70711V3.19953C1 4.02672 1.35373 4.81443 1.97198 5.36398L5.5 8.5ZM5.5 8.5L1.70711 12.2929C1.25435 12.7456 1 13.3597 1 14V14.2929C1 14.7456 1.17986 15.1799 1.5 15.5V15.5C1.82014 15.8201 2.25435 16 2.70711 16H8.29289C8.74565 16 9.17986 15.8201 9.5 15.5V15.5C9.82014 15.1799 10 14.7456 10 14.2929V14C10 13.3597 9.74565 12.7456 9.29289 12.2929L5.5 8.5Z" stroke="black"/>
</svg>
