<svg width="6" height="8" viewBox="0 0 6 8" fill="none" xmlns="http://www.w3.org/2000/svg">
<path d="M1.73777 6.97275C2.08242 6.74323 2.51674 6.38203 3.12926 5.8716L3.12926 5.8716L3.8412 5.27832C4.21361 4.96798 4.46877 4.75468 4.64562 4.57318C4.81887 4.3954 4.87883 4.28519 4.90159 4.19427C4.93352 4.06673 4.93352 3.93327 4.90159 3.80573C4.87883 3.71481 4.81887 3.6046 4.64563 3.42682C4.46877 3.24532 4.21361 3.03203 3.8412 2.72168L3.12927 2.12841C2.51674 1.61797 2.08243 1.25677 1.73777 1.02725C1.38572 0.792812 1.21029 0.754922 1.10355 0.767885C0.934204 0.788452 0.775864 0.862614 0.65165 0.979544C0.573358 1.05325 0.490162 1.21227 0.444886 1.63281C0.400561 2.04451 0.4 2.6094 0.4 3.40673V4.59327C0.4 5.3906 0.400561 5.95549 0.444886 6.36719C0.490162 6.78773 0.573358 6.94675 0.65165 7.02046C0.775864 7.13739 0.934204 7.21155 1.10355 7.23211C1.21029 7.24508 1.38572 7.20719 1.73777 6.97275ZM3.38503 6.17852L3. 6.17889L3.38503 6.17852Z" stroke="black" strokeWidth="0.8" strokeLinecap="round" strokeLinejoin="round"/>
</svg>
