<svg width="57" height="60" viewBox="0 0 57 60" fill="none" xmlns="http://www.w3.org/2000/svg">
<path fillRule="evenodd" clipRule="evenodd" d="M54.2261 48.528C55.1793 47.4351 54.0035 45.877 52.5882 46.193C50.4374 46.6732 48.2011 46.9265 45.9055 46.9265C29.0423 46.9265 15.3719 33.2562 15.3719 16.393C15.3719 11.9955 16.3016 7.81511 17.975 4.03767C18.5624 2.71182 17.2652 1.25587 16.0081 1.97879C6.84438 7.24852 0.673828 17.1369 0.673828 28.4664C0.673828 45.3297 14.3442 59 31.2074 59C40.3916 59 48.6287 54.9451 54.2261 48.528Z" fill="black" stroke="#FF5959"/>
<path d="M40.2094 20.8142C40.6783 20.208 41.6269 20.3328 41.9229 21.0398L43.5914 25.0248C43.6998 25.2837 43.9121 25.4852 44.1764 25.5799L48.2432 27.0375C48.9647 27.2961 49.1391 28.2368 48.5582 28.7368L45.2839 31.5551C45.0711 31.7382 44.9451 32.0024 44.9367 32.283L44.8071 36.6012C44.7842 37.3673 43.9434 37.8238 43.2884 37.4259L39.5962 35.1827C39.3563 35.0369 39.0661 34.9987 38.7966 35.0774L34.6497 36.2886C33.914 36.5035 33.22 35.8449 33.3961 35.099L34.3885 30.8944C34.453 30.6211 34.3997 30.3334 34.2416 30.1014L31.8082 26.5317C31.3765 25.8985 31.7883 25.0349 32.5522 24.9719L36.8577 24.6165C37.1375 24.5934 37.3947 24.4537 37.5664 24.2316L40.2094 20.8142Z" fill="black" stroke="#A33838"/>
<path d="M29.565 9.67372C30.0531 9.08283 30.9972 9.2381 31.2703 9.95419L31.7711 11.2671C31.8712 11.5294 32.0769 11.7376 32.338 11.8408L33.6449 12.3571C34.3577 12.6387 34.5018 13.5846 33.9051 14.0656L32.8112 14.9476C32.5927 15.1238 32.4582 15.3838 32.4408 15.664L32.3536 17.0665C32.306 17.8315 31.451 18.2607 30.8091 17.842L29.6322 17.0742C29.3971 16.9207 29.1083 16.8733 28.8364 16.9433L27.4757 17.2937C26.7335 17.4849 26.061 16.8043 26.2609 16.0645L26.6274 14.7079C26.7007 14.4369 26.6566 14.1475 26.506 13.9106L25.7522 12.7247C25.3411 12.0779 25.7805 11.228 26.5459 11.1895L27.9493 11.119C28.2297 11.1049 28.4913 10.9735 28.6701 10.7571L29.565 9.67372Z" fill="black" stroke="#D00000"/>
<path d="M49.164 15.5989C49.2894 15.2368 49.7587 15.1444 50.0119 15.4321L50.5831 16.0811C50.6758 16.1865 50.8086 16.248 50.9489 16.2507L51.8133 16.2671C52.1964 16.2744 52.4293 16.6922 52.2339 17.0219L51.7932 17.7657C51.7216 17.8864 51.7041 18.0317 51.745 18.166L51.9965 18.9932C52.108 19.3598 51.7825 19.7104 51.4086 19.6265L50.565 19.4371C50.4281 19.4064 50.2845 19.4346 50.1694 19.515L49.4604 20.0098C49.1462 20.2291 48.7122 20.0279 48.6764 19.6464L48.5959 18.7856C48.5828 18.6458 48.5115 18.518 48.3995 18.4334L47.7099 17.912C47.4042 17.6809 47.4614 17.206 47.8132 17.0541L48.607 16.7114C48.7359 16.6558 48.8354 16.5486 48.8813 16.4159L49.164 15.5989Z" fill="black" stroke="#5D0D0D"/>
</svg>
