<svg width="10" height="9" viewBox="0 0 10 9" fill="none" xmlns="http://www.w3.org/2000/svg">
<path d="M8.3 0.9H6.7C6.25817 0.9 5.9 1.25817 5.9 1.7V3.3C5.9 3.74183 6.25817 4.1 6.7 4.1H7.5H8.3C8.74183 4.1 9.1 3.74183 9.1 3.3V1.7C9.1 1.25817 8.74183 0.9 8.3 0.9Z" fill="#D9D9D9" stroke="black" strokeWidth="0.2"/>
<path d="M8.3 4.9H6.7C6.25817 4.9 5.9 5.25817 5.9 5.7V7.3C5.9 7.74183 6.25817 8.1 6.7 8.1H8.3C8.74183 8.1 9.1 7.74183 9.1 7.3V5.7C9.1 5.25817 8.74183 4.9 8.3 4.9Z" fill="#D9D9D9" stroke="black" strokeWidth="0.2"/>
<rect x="0.9" y="0.9" width="4.2" height="7.2" rx="1.1" fill="#D9D9D9" stroke="black" strokeWidth="0.2"/>
</svg>
