<svg width="28" height="28" viewBox="0 0 28 28" fill="none" xmlns="http://www.w3.org/2000/svg">
<path d="M5.58737 20.4587L1.38657 24.7163C1.13888 24.9674 1 25.3058 1 25.6585C1 26.3994 1.60061 27 2.34149 27H2.57952C3.00211 27 3.40708 26.8307 3.70388 26.5298L7.88777 22.2894C8.63196 21.5352 9.83525 21.4922 10.6313 22.1915L12.1663 23.5398C13.5545 24.7591 15.7043 24.4458 16.6868 22.8811L19.7595 17.9873C19.9445 17.6927 20.1889 17.44 20.4771 17.2452L26.0075 13.5084C27.563 12.4574 27.782 10.252 26.4634 8.91565L19.3544 1.71056C17.9912 0.328969 15.6948 0.585857 14.6706 2.23451L10.6529 8.70182C10.4429 9.03986 10.1552 9.32289 9.81381 9.52736L5.39641 12.1729C3.72828 13.1719 3.43664 15.4696 4.8023 16.8537L5.58737 17.6494C6.35581 18.4282 6.35581 19.6799 5.58737 20.4587Z" fill="#4094F8" stroke="black"/>
</svg>
