<svg width="336" height="336" viewBox="0 0 336 336" fill="none" xmlns="http://www.w3.org/2000/svg">
<path d="M155.443 91.841C155.518 91.6066 155.576 91.3595 155.62 91.1173C158.612 74.5591 176.609 74.5588 179.602 91.1162C179.646 91.3592 179.705 91.6069 179.78 91.842L196.642 144.241L244.511 154.778C261.565 157.587 261.565 176.858 244.511 179.667L196.642 191.759L179.78 244.158C179.705 244.393 179.646 244.641 179.602 244.884C176.609 261.441 158.612 261.441 155.62 244.883C155.576 244.64 155.518 244.393 155.443 244.159L138.606 191.759L91.4889 179.667C74.4349 176.858 74.4349 157.587 91.4889 154.778L138.606 144.241L155.443 91.841Z" fill="#49A0FD"/>
</svg>
